<svg width="150" height="100" xmlns="http://www.w3.org/2000/svg"><path d="M0 0h50v100H0z" fill="#00f" fill-rule="evenodd"/><path d="M50 0h50v100H50z" fill="#0f0" fill-rule="evenodd"/><path d="M100 0h50v100h-50z" fill="red" fill-rule="evenodd"/><path d="M15 40h20v20H15zm50 0h20v20H65zm50 0h20v20h-20z" fill-rule="evenodd"/><path d="M22.087 54.867v-9.734h3q.866 0 1.52.36.653.347 1.013.974.36.626.36 1.466 0 .987-.507 1.694-.506.706-1.346.986l1.986 4.254h-1.32l-1.906-4.134h-1.614v4.134zm1.186-5.214h1.814q.746 0 1.2-.466.453-.48.453-1.254 0-.786-.453-1.253-.454-.467-1.2-.467h-1.814zM74.9 55q-1.333 0-2.107-.747-.773-.746-.773-2.053v-4.4q0-1.307.773-2.053Q73.567 45 74.9 45q1.307 0 2.08.76.773.747.773 2.04h-1.2q0-.827-.44-1.267-.426-.453-1.213-.453-.787 0-1.24.44-.44.44-.44 1.267V52.2q0 .827.44 1.28.453.453 1.24.453.787 0 1.213-.453.44-.453.44-1.28v-1.333H74.58v-1.094h3.173V52.2q0 1.293-.773 2.053-.773.747-2.08.747zm47.187-.133v-9.734h2.76q1.333 0 2.08.667.76.667.76 1.853 0 .747-.48 1.347-.467.6-1.227.747v.04q.573.066 1 .4.44.333.68.853.253.507.253 1.12 0 1.253-.773 1.987-.76.72-2.093.72zm1.173-5.587h1.573q.774 0 1.214-.413.453-.414.453-1.12 0-.707-.44-1.12-.44-.414-1.213-.414h-1.587zm0 4.507h1.653q.84 0 1.32-.44.494-.454.494-1.227 0-.8-.494-1.293-.48-.507-1.32-.507h-1.653z" fill="#fff" fill-rule="evenodd"/></svg>